<?xml version="1.0" encoding="UTF-8" standalone="no"?>
<svg version="1.1" xmlns="http://www.w3.org/2000/svg" width="128" height="128">
  <path d="M128 75.891l0-23.515-14.4-2.405c-1.067-4.008-2.667-7.75-4.533-10.957l8.533-11.757-16.533-16.835-12 8.284c-3.467-1.87-7.2-3.474-10.934-4.543l-2.4-14.163-23.466 0-2.4 14.43c-4 1.069-7.467 2.672-10.934 4.543l-11.733-8.284-16.8 16.568 8.533 11.757c-1.867 3.474-3.467 7.215-4.533 11.224l-14.4 2.138 0 23.515 14.4 2.405c1.067 4.008 2.667 7.483 4.533 10.957l-8.533 12.025 16.533 16.568 12-8.552c3.467 1.87 7.2 3.474 11.2 4.543l2.4 14.163 23.467 0 2.4-14.43c3.733-1.069 7.467-2.672 10.933-4.543l12 8.551 16.534-16.567-8.534-12.025c1.867-3.474 3.467-6.948 4.534-10.957z" />
  <text x="28.52608" y="92.87136" style="font-style:normal;font-size:80.68462px;font-family:Roboto;fill:#ffffff;fill-opacity:1">M</text>
</svg>
